<?xml version="1.0" encoding="UTF-8"?>
<!DOCTYPE svg PUBLIC "-//W3C//DTD SVG 1.1//EN" "http://www.w3.org/Graphics/SVG/1.1/DTD/svg11.dtd">
<!-- Creator: CorelDRAW 2020 (64-Bit) -->
<svg xmlns="http://www.w3.org/2000/svg" xml:space="preserve" width="210mm" height="297mm" version="1.1" style="shape-rendering:geometricPrecision; text-rendering:geometricPrecision; image-rendering:optimizeQuality; fill-rule:evenodd; clip-rule:evenodd"
viewBox="0 0 21000 29700"
 xmlns:xlink="http://www.w3.org/1999/xlink"
 xmlns:xodm="http://www.corel.com/coreldraw/odm/2003">
 <defs>
  <style type="text/css">
   <![CDATA[
    .fil0 {fill:black;fill-rule:nonzero}
   ]]>
  </style>
 </defs>
 <g id="Layer_x0020_1">
  <metadata id="CorelCorpID_0Corel-Layer"/>
  <g id="WhatsApp-Image-2022-11-14-at-15.48.08.svg">
   <g>
    <path class="fil0" d="M9129.54 1410.37c-2084.92,250.47 -3961.69,1150.06 -5408.08,2589.39 -486.83,483.31 -751.42,793.75 -1107.72,1312.33 -899.58,1305.28 -1509.89,2892.78 -1770.94,4614.33 -74.08,497.42 -63.5,1428.75 21.17,2028.47 306.92,2113.14 1389.94,4663.72 3351.39,7888.11 702.03,1153.58 1576.92,2483.56 2695.22,4106.33 740.83,1075.97 867.83,1259.42 1471.08,2151.94 744.36,1097.14 1012.47,1456.97 1337.03,1785.06 317.5,321.03 553.86,455.08 811.39,455.08 444.5,0 730.25,-285.75 1767.42,-1774.47 313.97,-448.03 677.33,-963.08 807.86,-1135.94 127,-176.39 310.44,-444.5 405.69,-599.72 2360.08,-3887.61 4748.39,-7888.11 5291.67,-8868.83 917.22,-1651 1337.03,-3153.83 1382.89,-4977.69 24.69,-878.42 -14.11,-1372.31 -165.81,-2120.19 -458.61,-2289.53 -1778,-4166.31 -3947.58,-5623.28 -1534.58,-1030.11 -3122.08,-1643.94 -4748.39,-1834.44 -560.92,-63.5 -1647.47,-63.5 -2194.28,3.53l-0.01 -0.01zm2282.47 2310.69c1068.92,116.42 2264.83,543.28 3175,1132.42 1453.44,938.39 2571.75,2384.78 3104.44,4014.61 1248.83,3806.47 -684.39,7941.03 -4399.14,9415.64 -896.06,352.78 -1714.5,508 -2726.97,511.53 -783.17,0 -1185.33,-45.86 -1887.36,-225.78 -2681.11,-680.86 -4755.44,-2755.19 -5450.42,-5446.89 -162.28,-631.47 -222.25,-1153.58 -222.25,-1890.89 0,-1273.53 243.42,-2314.22 807.86,-3421.94 627.94,-1238.25 1591.03,-2293.06 2741.08,-3005.67 1453.44,-903.11 3107.97,-1273.53 4857.75,-1083.03l0.01 0z"/>
    <path class="fil0" d="M9877.43 7033.65c-448.03,176.39 -4706.06,1806.22 -5266.97,2017.89 -127,45.86 -183.44,88.19 -176.39,123.47 7.06,31.75 419.81,208.14 1139.47,486.83 620.89,239.89 1961.44,754.94 2980.97,1146.53 1153.58,444.5 1897.94,712.61 1975.56,712.61 74.08,0 564.44,-172.86 1199.44,-423.33 592.67,-229.31 1227.67,-479.78 1418.17,-550.33 257.53,-98.78 342.19,-148.17 359.83,-208.14 10.58,-42.33 7.06,-84.67 -7.06,-95.25 -14.11,-14.11 -903.11,-299.86 -1972.03,-638.53 -1072.44,-338.67 -1947.33,-624.42 -1940.28,-638.53 7.06,-24.69 1428.75,-1051.28 1488.72,-1072.44 31.75,-14.11 896.06,246.94 4191,1259.42l342.19 105.83 0 155.22c0,158.75 0,158.75 123.47,158.75 158.75,0 864.31,-345.72 864.31,-423.33 0,-35.28 -141.11,-105.83 -433.92,-218.72 -3728.86,-1428.75 -5556.25,-2109.61 -5647.97,-2106.08 -59.97,0 -345.72,95.25 -638.53,208.14l0.02 -0.01z"/>
    <path class="fil0" d="M11048.65 8719.92l-91.72 95.25 1841.5 567.97 1841.5 564.44 28.22 1206.5 24.69 1206.5 -91.72 183.44c-169.33,331.61 -183.44,444.5 -194.03,1312.33 -3.53,451.56 3.53,843.14 21.17,867.83 21.17,35.28 119.94,42.33 423.33,24.69 525.64,-24.69 546.81,-42.33 543.28,-430.39 -3.53,-575.03 -127,-1241.78 -303.39,-1643.94l-98.78 -225.78 -17.64 -1337.03 -17.64 -1337.03 -88.19 -28.22c-49.39,-14.11 -857.25,-275.17 -1795.64,-575.03 -938.39,-303.39 -1756.83,-550.33 -1820.33,-550.33 -74.08,0 -141.11,31.75 -204.61,98.78l0 0.02z"/>
    <path class="fil0" d="M7168.09 11115.28c-14.11,10.58 -24.69,726.72 -24.69,1587.5 0,1344.08 7.06,1562.81 52.92,1562.81 28.22,0 370.42,-81.14 762,-176.39 899.58,-222.25 1351.14,-282.22 2144.89,-282.22 980.72,0 2007.31,130.53 3471.33,444.5l95.25 21.17 0 -1485.19 0 -1485.19 -190.5 0c-116.42,0 -257.53,28.22 -363.36,74.08 -91.72,38.81 -666.75,278.69 -1277.06,529.17 -878.42,359.83 -1139.47,455.08 -1270,455.08 -134.06,0 -451.56,-119.94 -1689.81,-635 -1414.64,-589.14 -1651,-673.81 -1710.97,-610.31l0 -0.01z"/>
    <path class="fil0" d="M9602.26 14995.84c-14.11,10.58 -24.69,155.22 -24.69,317.5l0 296.33 -77.61 -52.92c-119.94,-84.67 -384.53,-74.08 -504.47,21.17 -292.81,229.31 -306.92,843.14 -24.69,1093.61 109.36,95.25 144.64,105.83 289.28,91.72 95.25,-10.58 215.19,-52.92 278.69,-95.25 109.36,-77.61 109.36,-77.61 109.36,-7.06 0,59.97 21.17,74.08 123.47,74.08l123.47 0 0 -881.94 0 -881.94 -134.06 0c-74.08,0 -148.17,10.58 -158.75,24.69l0 0.01zm-116.42 825.5c81.14,63.5 91.72,95.25 91.72,289.28 0,172.86 -14.11,229.31 -77.61,296.33 -105.83,112.89 -257.53,105.83 -335.14,-10.58 -116.42,-179.92 -56.44,-585.61 91.72,-624.42 109.36,-31.75 134.06,-24.69 229.31,49.39z"/>
    <path class="fil0" d="M13034.79 15080.51c-24.69,38.81 -31.75,112.89 -21.17,158.75 21.17,74.08 42.33,84.67 179.92,84.67 137.58,0 158.75,-10.58 179.92,-84.67 31.75,-137.58 -38.81,-232.83 -179.92,-232.83 -88.19,0 -130.53,21.17 -158.75,74.08z"/>
    <path class="fil0" d="M7714.9 15570.87c-328.08,201.08 -342.19,899.58 -21.17,1111.25 127,81.14 483.31,109.36 666.75,45.86 123.47,-38.81 141.11,-59.97 151.69,-165.81 10.58,-109.36 7.06,-116.42 -70.56,-91.72 -45.86,14.11 -169.33,31.75 -275.17,42.33 -222.25,21.17 -331.61,-42.33 -373.94,-211.67l-21.17 -95.25 388.06 0c366.89,0 388.06,-3.53 405.69,-77.61 42.33,-151.69 -42.33,-405.69 -172.86,-522.11 -109.36,-95.25 -148.17,-105.83 -342.19,-105.83 -158.75,0 -250.47,21.17 -335.14,70.56l0.01 0zm465.67 197.55c31.75,28.22 56.44,67.03 56.44,84.67 0,17.64 10.58,52.92 21.17,84.67 17.64,49.39 -14.11,56.44 -232.83,56.44 -243.42,0 -250.47,-3.53 -229.31,-81.14 52.92,-176.39 271.64,-261.06 384.53,-144.64z"/>
    <path class="fil0" d="M10223.15 15553.23c-35.28,98.78 10.58,913.69 59.97,1016 102.31,208.14 395.11,261.06 613.83,112.89 119.94,-81.14 127,-81.14 127,-17.64 0,59.97 24.69,70.56 141.11,70.56l141.11 0 -7.06 -610.31 -10.58 -606.78 -141.11 0 -141.11 0 -10.58 412.75c-10.58,398.64 -14.11,416.28 -102.31,486.83 -49.39,38.81 -127,70.56 -172.86,70.56 -144.64,0 -183.44,-148.17 -186.97,-716.14l-3.53 -271.64 -141.11 0c-95.25,0 -151.69,17.64 -165.81,52.92l0.01 0z"/>
    <path class="fil0" d="M11648.37 15521.48c-14.11,14.11 -24.69,292.81 -24.69,620.89l0 592.67 158.75 0 158.75 0 0 -398.64c0,-373.94 7.06,-405.69 81.14,-476.25 105.83,-98.78 289.28,-102.31 342.19,-10.58 17.64,38.81 35.28,254 35.28,476.25l0 409.22 158.75 0 158.75 0 0 -455.08c0,-490.36 -21.17,-589.14 -144.64,-705.56 -119.94,-109.36 -391.58,-102.31 -546.81,14.11l-116.42 88.19 -10.58 -81.14c-7.06,-56.44 -38.81,-81.14 -116.42,-88.19 -59.97,-7.06 -119.94,0 -134.06,14.11l0.01 0z"/>
    <path class="fil0" d="M13059.48 15521.48c-14.11,14.11 -24.69,292.81 -24.69,620.89l0 592.67 158.75 0 158.75 0 -7.06 -610.31 -10.58 -606.78 -123.47 -10.58c-70.56,-7.06 -137.58,0 -151.69,14.11l-0.01 0z"/>
   </g>
  </g>
 </g>
</svg>
