<?xml version="1.0" encoding="UTF-8"?>
<!DOCTYPE svg PUBLIC "-//W3C//DTD SVG 1.1//EN" "http://www.w3.org/Graphics/SVG/1.1/DTD/svg11.dtd">
<!-- Creator: CorelDRAW 2020 (64-Bit) -->
<svg xmlns="http://www.w3.org/2000/svg" xml:space="preserve" width="210mm" height="297mm" version="1.1" style="shape-rendering:geometricPrecision; text-rendering:geometricPrecision; image-rendering:optimizeQuality; fill-rule:evenodd; clip-rule:evenodd"
viewBox="0 0 21000 29700"
 xmlns:xlink="http://www.w3.org/1999/xlink"
 xmlns:xodm="http://www.corel.com/coreldraw/odm/2003">
 <defs>
  <style type="text/css">
   <![CDATA[
    .fil0 {fill:black;fill-rule:nonzero}
   ]]>
  </style>
 </defs>
 <g id="Layer_x0020_1">
  <metadata id="CorelCorpID_0Corel-Layer"/>
  <g id="WhatsApp-Image-2022-11-14-at-15.48.08.svg">
   <g>
    <path class="fil0" d="M9602.26 14995.84c-14.11,10.58 -24.69,155.22 -24.69,317.5l0 296.33 -77.61 -52.92c-119.94,-84.67 -384.53,-74.08 -504.47,21.17 -292.81,229.31 -306.92,843.14 -24.69,1093.61 109.36,95.25 144.64,105.83 289.28,91.72 95.25,-10.58 215.19,-52.92 278.69,-95.25 109.36,-77.61 109.36,-77.61 109.36,-7.06 0,59.97 21.17,74.08 123.47,74.08l123.47 0 0 -881.94 0 -881.94 -134.06 0c-74.08,0 -148.17,10.58 -158.75,24.69l0 0.01zm-116.42 825.5c81.14,63.5 91.72,95.25 91.72,289.28 0,172.86 -14.11,229.31 -77.61,296.33 -105.83,112.89 -257.53,105.83 -335.14,-10.58 -116.42,-179.92 -56.44,-585.61 91.72,-624.42 109.36,-31.75 134.06,-24.69 229.31,49.39z"/>
    <path class="fil0" d="M13034.79 15080.51c-24.69,38.81 -31.75,112.89 -21.17,158.75 21.17,74.08 42.33,84.67 179.92,84.67 137.58,0 158.75,-10.58 179.92,-84.67 31.75,-137.58 -38.81,-232.83 -179.92,-232.83 -88.19,0 -130.53,21.17 -158.75,74.08z"/>
    <path class="fil0" d="M7714.9 15570.87c-328.08,201.08 -342.19,899.58 -21.17,1111.25 127,81.14 483.31,109.36 666.75,45.86 123.47,-38.81 141.11,-59.97 151.69,-165.81 10.58,-109.36 7.06,-116.42 -70.56,-91.72 -45.86,14.11 -169.33,31.75 -275.17,42.33 -222.25,21.17 -331.61,-42.33 -373.94,-211.67l-21.17 -95.25 388.06 0c366.89,0 388.06,-3.53 405.69,-77.61 42.33,-151.69 -42.33,-405.69 -172.86,-522.11 -109.36,-95.25 -148.17,-105.83 -342.19,-105.83 -158.75,0 -250.47,21.17 -335.14,70.56l0.01 0zm465.67 197.55c31.75,28.22 56.44,67.03 56.44,84.67 0,17.64 10.58,52.92 21.17,84.67 17.64,49.39 -14.11,56.44 -232.83,56.44 -243.42,0 -250.47,-3.53 -229.31,-81.14 52.92,-176.39 271.64,-261.06 384.53,-144.64z"/>
    <path class="fil0" d="M10223.15 15553.23c-35.28,98.78 10.58,913.69 59.97,1016 102.31,208.14 395.11,261.06 613.83,112.89 119.94,-81.14 127,-81.14 127,-17.64 0,59.97 24.69,70.56 141.11,70.56l141.11 0 -7.06 -610.31 -10.58 -606.78 -141.11 0 -141.11 0 -10.58 412.75c-10.58,398.64 -14.11,416.28 -102.31,486.83 -49.39,38.81 -127,70.56 -172.86,70.56 -144.64,0 -183.44,-148.17 -186.97,-716.14l-3.53 -271.64 -141.11 0c-95.25,0 -151.69,17.64 -165.81,52.92l0.01 0z"/>
    <path class="fil0" d="M11648.37 15521.48c-14.11,14.11 -24.69,292.81 -24.69,620.89l0 592.67 158.75 0 158.75 0 0 -398.64c0,-373.94 7.06,-405.69 81.14,-476.25 105.83,-98.78 289.28,-102.31 342.19,-10.58 17.64,38.81 35.28,254 35.28,476.25l0 409.22 158.75 0 158.75 0 0 -455.08c0,-490.36 -21.17,-589.14 -144.64,-705.56 -119.94,-109.36 -391.58,-102.31 -546.81,14.11l-116.42 88.19 -10.58 -81.14c-7.06,-56.44 -38.81,-81.14 -116.42,-88.19 -59.97,-7.06 -119.94,0 -134.06,14.11l0.01 0z"/>
    <path class="fil0" d="M13059.48 15521.48c-14.11,14.11 -24.69,292.81 -24.69,620.89l0 592.67 158.75 0 158.75 0 -7.06 -610.31 -10.58 -606.78 -123.47 -10.58c-70.56,-7.06 -137.58,0 -151.69,14.11l-0.01 0z"/>
   </g>
  </g>
 </g>
</svg>